<svg width="701" height="302" viewBox="0 0 701 302" fill="none" xmlns="http://www.w3.org/2000/svg">
<path d="M441.8 59.2434H422.5C422.141 59.2434 421.85 59.5344 421.85 59.8934V170.673C421.85 171.032 422.141 171.323 422.5 171.323H441.8C442.159 171.323 442.45 171.032 442.45 170.673V59.8934C442.45 59.5344 442.159 59.2434 441.8 59.2434Z" fill="#434850"/>
<path d="M333.44 170.693V62.2234C333.44 62.0563 333.506 61.8961 333.624 61.7779C333.742 61.6598 333.903 61.5934 334.07 61.5934H406.29C406.457 61.5934 406.617 61.6598 406.735 61.7779C406.853 61.8961 406.92 62.0563 406.92 62.2234V79.4134C406.92 79.5805 406.853 79.7407 406.735 79.8589C406.617 79.977 406.457 80.0434 406.29 80.0434H355.51C355.343 80.0434 355.182 80.1098 355.064 80.2279C354.946 80.3461 354.88 80.5063 354.88 80.6734V106.323C354.88 106.491 354.946 106.651 355.064 106.769C355.182 106.887 355.343 106.953 355.51 106.953H403.46C403.627 106.953 403.787 107.02 403.905 107.138C404.023 107.256 404.09 107.416 404.09 107.583V124.443C404.09 124.611 404.023 124.771 403.905 124.889C403.787 125.007 403.627 125.073 403.46 125.073H355.53C355.363 125.073 355.202 125.14 355.084 125.258C354.966 125.376 354.9 125.536 354.9 125.703V170.693C354.9 170.861 354.833 171.021 354.715 171.139C354.597 171.257 354.437 171.323 354.27 171.323H334.07C333.903 171.323 333.742 171.257 333.624 171.139C333.506 171.021 333.44 170.861 333.44 170.693Z" fill="#434850"/>
<path d="M498.31 92.2834C514.2 92.1234 527.24 98.4634 535.1 111.823C538.6 117.763 540.39 124.553 540.47 132.193C540.55 139.833 538.903 146.66 535.53 152.673C527.95 166.193 515.05 172.803 499.15 172.973C483.25 173.133 470.22 166.793 462.35 153.433C458.856 147.493 457.07 140.703 456.99 133.063C456.91 125.423 458.553 118.597 461.92 112.583C469.51 99.0634 482.41 92.4534 498.31 92.2834ZM477.66 132.533C477.66 145.373 485.29 155.733 498.68 155.723C512.08 155.723 519.7 145.363 519.7 132.523C519.69 119.673 512.07 109.323 498.67 109.323C485.27 109.333 477.65 119.683 477.66 132.533Z" fill="#434850"/>
<path d="M636.95 148.133C636.958 148.161 636.974 148.184 636.996 148.201C637.019 148.218 637.047 148.228 637.075 148.228C637.103 148.228 637.13 148.218 637.153 148.201C637.176 148.184 637.192 148.161 637.2 148.133L652.61 94.7434C652.664 94.5563 652.778 94.3918 652.935 94.2746C653.092 94.1574 653.283 94.0938 653.48 94.0934H673.31C673.394 94.0942 673.476 94.1146 673.551 94.1529C673.626 94.1912 673.69 94.2463 673.739 94.3137C673.788 94.3811 673.82 94.4588 673.832 94.5405C673.844 94.6222 673.837 94.7054 673.81 94.7834L648.75 170.723C648.697 170.878 648.598 171.012 648.465 171.108C648.332 171.203 648.173 171.254 648.01 171.253H626.8C626.683 171.254 626.569 171.219 626.474 171.152C626.379 171.086 626.307 170.992 626.27 170.883L608.89 119.173C608.878 119.143 608.858 119.116 608.831 119.098C608.804 119.079 608.772 119.069 608.74 119.069C608.707 119.069 608.675 119.079 608.648 119.098C608.622 119.116 608.601 119.143 608.59 119.173L592.38 170.743C592.333 170.889 592.242 171.016 592.12 171.106C591.998 171.195 591.851 171.244 591.7 171.243H570.22C570.056 171.244 569.897 171.193 569.764 171.098C569.632 171.002 569.532 170.868 569.48 170.713L543.99 94.8734C543.959 94.7859 543.95 94.6923 543.964 94.6006C543.977 94.5089 544.012 94.4217 544.066 94.3463C544.12 94.2709 544.191 94.2095 544.273 94.1672C544.356 94.125 544.447 94.1031 544.54 94.1034H565.27C565.458 94.1041 565.64 94.1649 565.789 94.2766C565.939 94.3884 566.048 94.5451 566.1 94.7234L581.27 147.833C581.292 147.918 581.342 147.992 581.411 148.046C581.479 148.099 581.564 148.129 581.651 148.13C581.738 148.131 581.823 148.104 581.894 148.052C581.964 148 582.015 147.927 582.04 147.843L598.75 94.7134C598.811 94.5214 598.932 94.3539 599.093 94.2352C599.255 94.1166 599.45 94.0529 599.65 94.0534H618.99C619.161 94.0535 619.327 94.1078 619.466 94.2083C619.604 94.3089 619.707 94.4507 619.76 94.6134L636.95 148.133Z" fill="#434850"/>
<path d="M47.7899 12.0334C54.2299 2.29354 65.2901 -2.1866 76.66 1.03337C86.3865 3.79341 92.4762 10.3006 94.9295 20.5539C94.9659 20.7155 95.0575 20.8595 95.1883 20.9631C95.3191 21.0666 95.4814 21.1231 95.6492 21.1232H243.84C244.184 21.1237 244.519 21.0106 244.792 20.801C245.065 20.5912 245.261 20.2968 245.349 19.964C250.439 0.724036 274.23 -6.33659 288.53 7.82341C295.1 14.3334 297.929 24.6933 294.639 33.3332C291.049 42.7531 283.11 49.4338 273.17 50.2638C259.42 51.4138 247.7 43.2137 245.18 29.3039C245.14 29.0882 245.025 28.8927 244.855 28.7521C244.686 28.6116 244.471 28.5341 244.25 28.5334H95.9793C95.7548 28.5342 95.537 28.6106 95.3612 28.7502C95.1852 28.8899 95.0613 29.0852 95.0096 29.3039C92.5829 40.1704 86.1991 46.9 75.8592 49.4933C75.6303 49.5513 75.4269 49.6847 75.2821 49.8713C75.1373 50.0578 75.0589 50.2875 75.0594 50.5236V85.214C75.0595 85.3255 75.0822 85.4363 75.1248 85.5392C75.1675 85.6421 75.2297 85.7358 75.3084 85.8146C75.3874 85.8936 75.4817 85.9565 75.5848 85.9992C75.6878 86.0418 75.7985 86.0636 75.91 86.0636C83.7298 86.0836 87.8596 86.0898 88.2996 86.0832C93.6796 85.9932 95.9398 87.9837 95.9998 93.1037C96.0465 97.3436 96.1196 100.374 96.2196 102.194C96.2297 102.348 96.2976 102.493 96.409 102.599C96.5204 102.705 96.6677 102.764 96.8201 102.764H178.309C178.459 102.764 178.604 102.707 178.714 102.605C178.823 102.503 178.889 102.363 178.899 102.214C179.819 91.1541 188.28 80.9341 199.43 79.174C215.5 76.654 228.169 85.604 229.859 101.714C230.212 112.994 225.379 121.204 215.359 126.344C213.473 127.31 211.509 127.9 209.47 128.113C209.377 128.125 209.292 128.17 209.229 128.237C209.167 128.305 209.132 128.393 209.13 128.484L209.04 163.413C209.56 171.673 207.65 178.473 200.29 182.653C197.75 184.093 193.949 184.787 188.889 184.734C185.296 184.7 181.17 184.697 176.51 184.724C176.268 184.724 176.032 184.8 175.835 184.942C175.638 185.083 175.489 185.283 175.41 185.514C170.94 198.354 157.73 206.164 144.54 201.394C136.713 198.56 131.566 193.217 129.099 185.363C129.068 185.267 129.004 185.186 128.921 185.131C128.837 185.076 128.738 185.052 128.639 185.064C124.273 185.524 120.103 186.367 116.13 187.594C100.43 192.444 88.8298 196.494 76.0399 203.524C75.7565 203.677 75.5205 203.906 75.3582 204.185C75.196 204.463 75.1139 204.781 75.1199 205.104C75.2466 214.204 75.296 224.254 75.2694 235.254C75.2595 241.554 77.54 248.514 79.3299 254.234C79.3606 254.33 79.4118 254.418 79.4803 254.492C79.5488 254.566 79.633 254.624 79.7264 254.662C79.8198 254.7 79.9205 254.718 80.0213 254.713C80.1219 254.708 80.2203 254.681 80.3094 254.634C95.2994 246.794 112.59 252.584 118.09 268.594C120.743 276.32 119.49 283.921 114.33 291.394C104.59 305.494 81.9598 304.963 72.7098 290.613C66.7098 281.313 66.716 271.91 72.7293 262.403C72.8586 262.198 72.9058 261.951 72.8612 261.715C72.8165 261.479 72.6838 261.271 72.4901 261.134L46.45 242.594C46.2949 242.484 46.1034 242.435 45.9158 242.459C45.7284 242.483 45.5579 242.578 45.4393 242.724C33.2592 257.733 9.85981 254.173 2.20979 236.644C-3.39021 223.814 1.95987 209.573 14.7899 203.903C22.8831 200.324 31.0161 200.677 39.1893 204.964C41.6392 206.244 44.6293 209.203 46.2694 210.653C46.3891 210.761 46.5401 210.827 46.7 210.843C46.8599 210.859 47.0212 210.824 47.16 210.743L65.6698 200.064C66.1343 199.797 66.5199 199.41 66.7869 198.945C67.0538 198.479 67.1924 197.951 67.1893 197.413L67.1297 133.314C63.7031 132.774 60.023 132.547 56.0897 132.634C53.123 132.701 51.2598 132.43 50.4998 131.823C48.0798 129.903 47.6895 128.453 47.6395 124.953C47.4928 113.814 47.4568 102.72 47.5301 91.674C47.5501 88.0674 49.5296 86.2166 53.4696 86.1232C57.6362 86.0299 61.8462 85.9805 66.0994 85.9738C66.3355 85.9738 66.5624 85.8789 66.7293 85.7101C66.8962 85.5414 66.9901 85.3121 66.9901 85.0734V50.7531C66.9895 50.605 66.9359 50.4625 66.8407 50.3508C66.7453 50.2388 66.6138 50.1652 66.4696 50.1437C53.1397 48.2237 43.7299 37.5338 44.0897 23.884C44.203 19.5373 45.4365 15.5867 47.7899 12.0334ZM66.4295 209.041C66.3638 209.039 66.2985 209.053 66.2401 209.083C60.6735 211.87 55.6929 214.857 51.2996 218.043C51.0445 218.23 50.8493 218.489 50.7391 218.785C50.6289 219.082 50.6084 219.406 50.6795 219.714C51.8461 224.807 51.6362 229.76 50.0496 234.573C49.9914 234.746 49.9909 234.934 50.0487 235.108C50.1064 235.281 50.2196 235.43 50.3699 235.533C56.3365 239.6 62.2431 243.99 68.0897 248.703C68.2829 248.857 68.4827 248.947 68.6893 248.974C68.7629 248.985 68.8386 248.976 68.908 248.949C68.9774 248.922 69.0388 248.877 69.0867 248.82C69.1346 248.762 69.167 248.692 69.1815 248.617C69.1959 248.543 69.1922 248.466 69.1698 248.394C67.5898 243.414 66.8095 239.174 66.8494 233.264C66.8894 228.464 66.8761 220.52 66.8094 209.434C66.8075 209.366 66.7892 209.3 66.7557 209.241C66.7221 209.183 66.674 209.134 66.617 209.099C66.5601 209.064 66.4955 209.044 66.4295 209.041ZM96.5496 111.104C96.4012 111.104 96.2591 111.162 96.1541 111.265C96.0491 111.368 95.9901 111.508 95.9901 111.653C95.9834 112.693 95.9659 117.567 95.9393 126.274C95.9293 130.973 93.6698 132.704 88.7801 132.674C84.1801 132.647 79.6061 132.744 75.0594 132.964L75.0399 194.293C75.0401 194.366 75.0585 194.439 75.0936 194.503C75.1288 194.567 75.1794 194.623 75.241 194.662C75.3025 194.702 75.3732 194.725 75.4461 194.731C75.5192 194.736 75.5931 194.724 75.66 194.694C92.4898 186.654 110.06 179.854 128.439 176.774C128.541 176.756 128.636 176.708 128.708 176.636C128.78 176.564 128.826 176.472 128.84 176.373C130.92 164.063 140.43 155.934 152.95 155.684C165.17 155.444 174.68 164.053 176.28 176.083C176.305 176.283 176.403 176.467 176.555 176.6C176.708 176.732 176.905 176.806 177.109 176.804C185.015 176.644 189.582 176.577 190.809 176.604C198.849 176.754 201.729 172.093 201.309 164.583L201.38 129.163C201.379 128.998 201.319 128.839 201.211 128.714C201.103 128.589 200.953 128.508 200.79 128.484C190.443 126.864 183.37 121.024 179.57 110.964L96.5496 111.104Z" fill="url(#paint0_linear_1_139)"/>
<path d="M577.451 202.76L576.013 202.694C574.463 202.624 573.149 203.823 573.078 205.374L573.028 206.473C572.958 208.023 574.158 209.337 575.708 209.407L577.147 209.473C578.697 209.543 580.011 208.343 580.081 206.793L580.131 205.694C580.201 204.144 579.002 202.83 577.451 202.76Z" fill="#434850"/>
<path d="M374.52 247.923C374.549 247.905 374.582 247.894 374.617 247.893C374.651 247.891 374.685 247.898 374.715 247.914C374.744 247.929 374.769 247.952 374.786 247.98C374.803 248.008 374.811 248.041 374.81 248.073V253.073C374.81 253.149 374.79 253.224 374.751 253.289C374.712 253.354 374.656 253.407 374.59 253.443C358.4 262.293 338.76 257.523 332.71 239.193C330.87 233.6 330.833 227.867 332.6 221.993C336.186 210.107 344.31 203.67 356.97 202.683C362.536 202.25 368.01 203.13 373.39 205.323C373.771 205.477 374.097 205.741 374.327 206.081C374.557 206.421 374.68 206.823 374.68 207.233V210.333C374.679 210.497 374.637 210.657 374.557 210.799C374.476 210.941 374.361 211.06 374.221 211.145C374.081 211.229 373.922 211.276 373.759 211.281C373.596 211.286 373.434 211.249 373.29 211.173C359.09 203.783 339.34 208.083 337.72 226.863C336.92 236.273 339.86 246.663 349.38 250.623C357.59 254.033 367.01 252.783 374.52 247.923Z" fill="#434850"/>
<path d="M495.92 224.473C495.917 224.548 495.939 224.621 495.983 224.681C496.027 224.741 496.09 224.785 496.162 224.805C496.234 224.824 496.311 224.819 496.379 224.79C496.448 224.761 496.504 224.709 496.54 224.643C498.72 221.097 501.903 219.07 506.09 218.563C516.183 217.337 522.483 221.523 524.99 231.123C526.56 237.143 525.62 245.993 521.71 251.023C515.71 258.763 502.2 260.933 496.61 251.333C496.579 251.277 496.531 251.232 496.472 251.207C496.413 251.182 496.347 251.178 496.284 251.195C496.222 251.212 496.166 251.249 496.125 251.302C496.084 251.354 496.061 251.418 496.06 251.483V273.643C496.06 273.712 496.031 273.778 495.981 273.827C495.93 273.876 495.861 273.903 495.79 273.903H491.2C491.112 273.903 491.028 273.869 490.967 273.807C490.905 273.745 490.87 273.661 490.87 273.573V219.813C490.87 219.652 490.935 219.496 491.051 219.382C491.168 219.268 491.325 219.203 491.49 219.203H495.3C495.464 219.203 495.622 219.268 495.738 219.382C495.855 219.496 495.92 219.652 495.92 219.813V224.473ZM495.83 237.113C495.36 244.763 498.2 252.523 507.02 253.053C515.83 253.593 519.59 246.233 520.05 238.583C520.51 230.933 517.67 223.173 508.86 222.633C500.05 222.103 496.29 229.463 495.83 237.113Z" fill="#434850"/>
<path d="M618.31 223.233C618.47 222.527 618.456 221.517 618.27 220.203C618.256 220.094 618.265 219.982 618.297 219.877C618.329 219.771 618.384 219.673 618.456 219.59C618.529 219.507 618.619 219.44 618.719 219.394C618.82 219.348 618.929 219.324 619.04 219.323H622.7C622.907 219.323 623.105 219.406 623.251 219.552C623.398 219.698 623.48 219.897 623.48 220.103C623.38 233.33 623.36 245.99 623.42 258.083C623.433 261.037 622.336 264.29 620.13 267.843C614.92 276.223 600.02 275.393 592.05 271.673C591.846 271.578 591.674 271.427 591.554 271.238C591.433 271.048 591.37 270.828 591.37 270.603V266.973C591.37 266.882 591.394 266.793 591.44 266.714C591.485 266.635 591.551 266.569 591.63 266.523C591.709 266.478 591.799 266.454 591.89 266.454C591.981 266.454 592.071 266.478 592.15 266.523C599.26 270.553 612.01 271.943 616.49 263.493C618.16 260.343 618.36 254.923 618.52 251.063C618.525 250.99 618.507 250.917 618.467 250.856C618.428 250.794 618.369 250.747 618.301 250.721C618.232 250.695 618.157 250.692 618.087 250.712C618.016 250.733 617.954 250.775 617.91 250.833C612.756 257.413 606.103 258.917 597.95 255.343C588.4 251.153 586.95 239.173 589.46 230.403C593.03 217.873 608.84 213.873 617.64 223.403C617.687 223.457 617.748 223.496 617.817 223.516C617.885 223.537 617.957 223.539 618.026 223.521C618.095 223.504 618.158 223.468 618.208 223.417C618.258 223.366 618.293 223.303 618.31 223.233ZM606.899 222.519C603.556 222.367 600.276 223.821 597.783 226.562C595.289 229.302 593.786 233.104 593.603 237.131C593.512 239.125 593.749 241.114 594.299 242.985C594.848 244.856 595.701 246.572 596.808 248.036C597.914 249.499 599.253 250.68 600.748 251.513C602.243 252.345 603.865 252.813 605.52 252.888C608.864 253.04 612.143 251.585 614.637 248.845C617.13 246.105 618.634 242.303 618.817 238.276C618.907 236.282 618.671 234.293 618.121 232.422C617.571 230.551 616.718 228.834 615.612 227.371C614.505 225.908 613.166 224.726 611.671 223.894C610.176 223.061 608.555 222.594 606.899 222.519Z" fill="#434850"/>
<path d="M640.09 256.443C640.09 256.518 640.061 256.589 640.011 256.641C639.96 256.694 639.891 256.723 639.82 256.723H635.14C635.055 256.723 634.974 256.69 634.914 256.63C634.854 256.57 634.82 256.488 634.82 256.403V219.753C634.82 219.621 634.872 219.494 634.966 219.4C635.06 219.306 635.187 219.253 635.32 219.253H639.49C639.609 219.253 639.724 219.301 639.808 219.385C639.892 219.47 639.94 219.584 639.94 219.703V224.603C639.942 224.689 639.972 224.771 640.026 224.837C640.08 224.904 640.153 224.951 640.236 224.971C640.319 224.992 640.406 224.984 640.485 224.95C640.563 224.917 640.628 224.858 640.67 224.783C644.33 217.753 655.81 216.043 661.73 220.883C665.87 224.253 666.89 229.273 666.82 234.623C666.813 235.41 666.693 242.643 666.46 256.323C666.457 256.436 666.411 256.543 666.33 256.621C666.25 256.699 666.142 256.743 666.03 256.743H661.72C661.616 256.743 661.517 256.702 661.444 256.629C661.371 256.556 661.33 256.457 661.33 256.353C661.19 247.36 661.133 240.593 661.16 236.053C661.193 231.333 660.64 228.133 659.5 226.453C656.83 222.523 651.89 221.873 647.63 223.553C641.19 226.083 639.83 231.843 640.06 238.683C640.166 241.65 640.176 247.57 640.09 256.443Z" fill="#434850"/>
<path d="M406.92 251.053C406.921 251.006 406.906 250.96 406.879 250.922C406.852 250.884 406.813 250.855 406.768 250.841C406.723 250.826 406.675 250.826 406.63 250.841C406.586 250.856 406.547 250.885 406.52 250.923C402.66 256.517 397.103 258.493 389.85 256.853C385.46 255.863 382.24 252.393 381.82 247.803C380.57 234.433 397.5 233.923 406.2 233.283C406.4 233.268 406.585 233.175 406.716 233.025C406.847 232.875 406.913 232.681 406.9 232.483C406.8 230.923 406.607 229.59 406.32 228.483C403.98 219.173 391.48 223.013 386.27 226.793C386.26 226.8 386.248 226.805 386.236 226.806C386.224 226.808 386.212 226.807 386.2 226.803C386.188 226.799 386.178 226.793 386.169 226.784C386.161 226.775 386.154 226.765 386.15 226.753L384.93 222.433C384.903 222.335 384.911 222.23 384.951 222.136C384.99 222.042 385.061 221.963 385.15 221.913C392.99 217.713 405.7 215.483 410.52 224.433C411.753 226.727 412.25 231.287 412.01 238.113C411.963 239.42 411.95 245.39 411.97 256.023C411.97 256.196 411.901 256.361 411.779 256.483C411.658 256.605 411.492 256.673 411.32 256.673L407.66 256.663C407.56 256.663 407.461 256.644 407.369 256.605C407.277 256.566 407.193 256.509 407.122 256.438C407.052 256.366 406.996 256.282 406.958 256.188C406.919 256.095 406.9 255.995 406.9 255.893L406.92 251.053ZM406.08 237.513C399.75 238.203 391.65 238.603 388.75 242.333C386.73 244.933 386.476 247.503 387.99 250.043C390.27 253.863 396.48 253.893 399.99 252.073C405.116 249.413 407.357 244.73 406.71 238.023C406.702 237.948 406.68 237.876 406.644 237.809C406.608 237.743 406.56 237.684 406.501 237.637C406.443 237.589 406.375 237.554 406.303 237.533C406.231 237.512 406.155 237.505 406.08 237.513Z" fill="#434850"/>
<path d="M428.27 224.103C428.269 224.188 428.297 224.271 428.347 224.339C428.398 224.407 428.469 224.456 428.551 224.48C428.632 224.504 428.719 224.5 428.798 224.47C428.877 224.44 428.945 224.385 428.99 224.313C432.12 219.203 437.25 218.093 443 218.423C447.34 218.67 450.527 220.83 452.56 224.903C452.598 224.981 452.656 225.047 452.728 225.095C452.801 225.143 452.884 225.17 452.97 225.175C453.057 225.181 453.143 225.163 453.22 225.124C453.297 225.085 453.363 225.026 453.41 224.953C456.063 220.947 459.923 218.76 464.99 218.393C477.58 217.473 479.96 226.273 479.87 237.263C479.797 245.917 479.757 252.277 479.75 256.343C479.75 256.431 479.715 256.515 479.653 256.577C479.591 256.639 479.507 256.673 479.42 256.673H474.87C474.833 256.673 474.797 256.666 474.763 256.651C474.729 256.637 474.698 256.615 474.672 256.589C474.646 256.562 474.625 256.53 474.611 256.494C474.597 256.459 474.59 256.422 474.59 256.383C474.583 244.303 474.59 236.717 474.61 233.623C474.623 231.563 474.223 229.557 473.41 227.603C470.43 220.523 460.55 221.673 456.75 227.143C454.93 229.763 454.007 232.503 453.98 235.363C453.873 244.917 453.87 251.913 453.97 256.353C453.97 256.402 453.961 256.45 453.942 256.495C453.924 256.54 453.898 256.581 453.864 256.615C453.831 256.649 453.791 256.677 453.748 256.695C453.704 256.714 453.657 256.723 453.61 256.723H449.43C449.326 256.723 449.227 256.682 449.154 256.609C449.081 256.536 449.04 256.437 449.04 256.333C449.06 240.933 449.04 232.613 448.98 231.373C448.63 223.233 439.57 220.243 433.58 224.573C429.32 227.653 428.22 232.093 428.4 237.563C428.573 242.897 428.587 249.107 428.44 256.193C428.437 256.34 428.377 256.48 428.272 256.583C428.168 256.686 428.027 256.743 427.88 256.743H423.67C423.519 256.743 423.374 256.684 423.267 256.579C423.16 256.474 423.1 256.332 423.1 256.183V219.723C423.1 219.559 423.165 219.401 423.281 219.285C423.398 219.169 423.555 219.103 423.72 219.103H427.56C427.748 219.103 427.929 219.178 428.062 219.311C428.195 219.445 428.27 219.625 428.27 219.813V224.103Z" fill="#434850"/>
<path d="M557.58 251.153C557.581 251.106 557.566 251.06 557.539 251.022C557.511 250.984 557.473 250.955 557.428 250.941C557.383 250.926 557.335 250.926 557.29 250.941C557.245 250.956 557.207 250.985 557.18 251.023C553.32 256.65 547.746 258.65 540.46 257.023C536.04 256.043 532.8 252.573 532.36 247.963C531.07 234.533 548.07 233.973 556.81 233.303C557.01 233.288 557.195 233.195 557.326 233.045C557.457 232.895 557.523 232.701 557.51 232.503C557.403 230.937 557.206 229.597 556.92 228.483C554.54 219.143 542 223.033 536.77 226.843C536.76 226.85 536.748 226.855 536.736 226.856C536.724 226.858 536.712 226.857 536.7 226.853C536.688 226.849 536.678 226.842 536.669 226.834C536.66 226.825 536.654 226.815 536.65 226.803L535.42 222.473C535.391 222.374 535.398 222.268 535.437 222.172C535.477 222.076 535.549 221.996 535.64 221.943C543.5 217.703 556.26 215.433 561.12 224.403C562.366 226.703 562.88 231.283 562.66 238.143C562.62 239.457 562.623 245.453 562.67 256.133C562.67 256.306 562.601 256.471 562.479 256.593C562.357 256.715 562.192 256.783 562.02 256.783H558.34C558.138 256.783 557.945 256.702 557.802 256.558C557.66 256.413 557.58 256.218 557.58 256.013V251.153ZM556.56 237.693C550.23 238.293 542.14 238.583 539.19 242.273C537.136 244.84 536.85 247.403 538.33 249.963C540.55 253.803 546.76 253.923 550.28 252.153C555.44 249.56 557.74 244.913 557.18 238.213C557.173 238.138 557.152 238.065 557.118 237.999C557.083 237.932 557.036 237.873 556.978 237.824C556.92 237.776 556.854 237.74 556.782 237.717C556.71 237.695 556.635 237.687 556.56 237.693Z" fill="#434850"/>
<path d="M675.69 254.713V249.483C675.689 249.439 675.701 249.395 675.724 249.357C675.747 249.319 675.781 249.289 675.821 249.27C675.862 249.251 675.906 249.244 675.951 249.25C675.995 249.256 676.036 249.274 676.07 249.303C677.923 250.803 680.283 251.913 683.15 252.633C687.19 253.643 692.03 253.023 694.46 249.423C696.23 246.813 693.71 243.083 691.45 242.083C686.303 239.81 682.996 238.303 681.53 237.563C672.34 232.933 673.55 221.113 683.46 218.923C688.567 217.803 693.493 218.36 698.24 220.593C698.275 220.608 698.306 220.633 698.327 220.667C698.348 220.701 698.36 220.741 698.36 220.783V225.593C698.359 225.631 698.349 225.667 698.33 225.7C698.311 225.732 698.285 225.759 698.253 225.777C698.222 225.796 698.186 225.805 698.15 225.804C698.115 225.804 698.08 225.793 698.05 225.773C694.636 223.64 691.086 222.63 687.4 222.743C682.79 222.883 678.93 226.453 681.82 231.163C682.473 232.23 683.803 233.173 685.81 233.993C692.66 236.813 700.73 238.943 700.29 247.193C699.62 259.633 683.39 258.943 675.81 254.913C675.773 254.892 675.742 254.863 675.721 254.827C675.7 254.792 675.689 254.753 675.69 254.713Z" fill="#434850"/>
<path d="M578.747 219.17L574.347 219.177C574.06 219.178 573.827 219.411 573.828 219.698L573.892 256.398C573.892 256.685 574.126 256.918 574.413 256.917L578.813 256.91C579.1 256.909 579.332 256.676 579.332 256.389L579.268 219.689C579.267 219.401 579.034 219.169 578.747 219.17Z" fill="#434850"/>
<defs>
<linearGradient id="paint0_linear_1_139" x1="47.4298" y1="-32.8766" x2="188.43" y2="331.123" gradientUnits="userSpaceOnUse">
<stop stop-color="#3471EA"/>
<stop offset="0.995192" stop-color="#5A48CE"/>
</linearGradient>
</defs>
</svg>
