<svg width="701" height="302" viewBox="0 0 701 302" fill="none" xmlns="http://www.w3.org/2000/svg">
<path d="M441.8 59.2436H422.5C422.141 59.2436 421.85 59.5346 421.85 59.8936V170.674C421.85 171.033 422.141 171.324 422.5 171.324H441.8C442.159 171.324 442.45 171.033 442.45 170.674V59.8936C442.45 59.5346 442.159 59.2436 441.8 59.2436Z" fill="white"/>
<path d="M333.44 170.694V62.2236C333.44 62.0565 333.506 61.8962 333.624 61.7781C333.742 61.6599 333.903 61.5936 334.07 61.5936H406.29C406.457 61.5936 406.617 61.6599 406.735 61.7781C406.853 61.8962 406.92 62.0565 406.92 62.2236V79.4136C406.92 79.5807 406.853 79.7409 406.735 79.8591C406.617 79.9772 406.457 80.0436 406.29 80.0436H355.51C355.343 80.0436 355.182 80.11 355.064 80.2281C354.946 80.3463 354.88 80.5065 354.88 80.6736V106.324C354.88 106.491 354.946 106.651 355.064 106.769C355.182 106.887 355.343 106.954 355.51 106.954H403.46C403.627 106.954 403.787 107.02 403.905 107.138C404.023 107.256 404.09 107.416 404.09 107.584V124.444C404.09 124.611 404.023 124.771 403.905 124.889C403.787 125.007 403.627 125.074 403.46 125.074H355.53C355.363 125.074 355.202 125.14 355.084 125.258C354.966 125.376 354.9 125.536 354.9 125.704V170.694C354.9 170.861 354.833 171.021 354.715 171.139C354.597 171.257 354.437 171.324 354.27 171.324H334.07C333.903 171.324 333.742 171.257 333.624 171.139C333.506 171.021 333.44 170.861 333.44 170.694Z" fill="white"/>
<path d="M498.31 92.2836C514.2 92.1236 527.24 98.4636 535.1 111.824C538.6 117.764 540.39 124.554 540.47 132.194C540.55 139.834 538.903 146.66 535.53 152.674C527.95 166.194 515.05 172.804 499.15 172.974C483.25 173.134 470.22 166.794 462.35 153.434C458.856 147.494 457.07 140.704 456.99 133.064C456.91 125.424 458.553 118.597 461.92 112.584C469.51 99.0636 482.41 92.4536 498.31 92.2836ZM477.66 132.534C477.66 145.374 485.29 155.734 498.68 155.724C512.08 155.724 519.7 145.364 519.7 132.524C519.69 119.674 512.07 109.324 498.67 109.324C485.27 109.334 477.65 119.684 477.66 132.534Z" fill="white"/>
<path d="M636.95 148.134C636.958 148.161 636.974 148.185 636.997 148.202C637.019 148.219 637.047 148.228 637.075 148.228C637.103 148.228 637.131 148.219 637.153 148.202C637.176 148.185 637.192 148.161 637.2 148.134L652.61 94.7436C652.664 94.5565 652.778 94.392 652.935 94.2748C653.092 94.1576 653.283 94.094 653.48 94.0936H673.31C673.394 94.0944 673.477 94.1147 673.551 94.153C673.626 94.1913 673.69 94.2465 673.739 94.3139C673.788 94.3813 673.82 94.459 673.832 94.5407C673.844 94.6223 673.837 94.7056 673.81 94.7836L648.75 170.724C648.697 170.878 648.598 171.013 648.465 171.108C648.332 171.203 648.173 171.254 648.01 171.254H626.8C626.683 171.254 626.569 171.219 626.474 171.153C626.379 171.086 626.308 170.992 626.27 170.884L608.89 119.174C608.878 119.143 608.858 119.117 608.831 119.098C608.804 119.079 608.772 119.069 608.74 119.069C608.707 119.069 608.675 119.079 608.648 119.098C608.622 119.117 608.601 119.143 608.59 119.174L592.38 170.744C592.333 170.889 592.242 171.016 592.12 171.106C591.998 171.196 591.851 171.244 591.7 171.244H570.22C570.057 171.244 569.897 171.193 569.764 171.098C569.632 171.003 569.532 170.868 569.48 170.714L543.99 94.8736C543.959 94.786 543.951 94.6925 543.964 94.6008C543.977 94.5091 544.012 94.4219 544.066 94.3465C544.12 94.2711 544.191 94.2097 544.273 94.1674C544.356 94.1252 544.447 94.1033 544.54 94.1036H565.27C565.458 94.1043 565.64 94.165 565.79 94.2768C565.939 94.3885 566.048 94.5453 566.1 94.7236L581.27 147.834C581.292 147.918 581.342 147.992 581.411 148.046C581.479 148.099 581.564 148.129 581.651 148.13C581.738 148.131 581.823 148.104 581.894 148.052C581.964 148 582.015 147.927 582.04 147.844L598.75 94.7136C598.811 94.5215 598.932 94.3541 599.094 94.2354C599.255 94.1167 599.45 94.053 599.65 94.0536H618.99C619.161 94.0537 619.327 94.1079 619.466 94.2085C619.604 94.3091 619.707 94.4509 619.76 94.6136L636.95 148.134Z" fill="white"/>
<path d="M47.79 12.0334C54.2301 2.29354 65.2903 -2.1866 76.6602 1.03337C86.3867 3.79341 92.4764 10.3006 94.9297 20.5539C94.9661 20.7155 95.0577 20.8595 95.1885 20.9631C95.3192 21.0666 95.4815 21.1231 95.6494 21.1232H243.84C244.184 21.1237 244.519 21.0106 244.792 20.801C245.065 20.5912 245.261 20.2968 245.35 19.964C250.44 0.724036 274.23 -6.33659 288.53 7.82341C295.1 14.3334 297.929 24.6933 294.64 33.3332C291.05 42.7531 283.11 49.4338 273.17 50.2638C259.42 51.4138 247.7 43.2137 245.18 29.3039C245.14 29.0882 245.025 28.8927 244.855 28.7521C244.686 28.6116 244.472 28.5341 244.25 28.5334H95.9795C95.755 28.5342 95.5372 28.6106 95.3613 28.7502C95.1854 28.8899 95.0614 29.0852 95.0098 29.3039C92.583 40.1704 86.1993 46.9 75.8594 49.4933C75.6304 49.5513 75.4271 49.6847 75.2822 49.8713C75.1375 50.0578 75.059 50.2875 75.0596 50.5236V85.214C75.0596 85.3255 75.0823 85.4363 75.125 85.5392C75.1677 85.6421 75.2298 85.7358 75.3086 85.8146C75.3875 85.8936 75.4818 85.9565 75.585 85.9992C75.688 86.0418 75.7987 86.0636 75.9102 86.0636C83.7299 86.0836 87.8598 86.0898 88.2998 86.0832C93.6798 85.9932 95.94 87.9837 96 93.1037C96.0467 97.3436 96.1197 100.374 96.2197 102.194C96.2299 102.348 96.2978 102.493 96.4092 102.599C96.5206 102.705 96.6679 102.764 96.8203 102.764H178.31C178.459 102.764 178.604 102.707 178.714 102.605C178.823 102.503 178.889 102.363 178.899 102.214C179.819 91.1541 188.28 80.9341 199.43 79.174C215.5 76.654 228.169 85.604 229.859 101.714C230.213 112.994 225.379 121.204 215.359 126.344C213.473 127.31 211.51 127.9 209.47 128.113C209.377 128.125 209.292 128.17 209.229 128.237C209.167 128.305 209.132 128.393 209.13 128.484L209.04 163.413C209.56 171.673 207.65 178.473 200.29 182.653C197.75 184.093 193.95 184.787 188.89 184.734C185.296 184.7 181.17 184.697 176.51 184.724C176.268 184.724 176.032 184.8 175.835 184.942C175.638 185.083 175.489 185.283 175.41 185.514C170.94 198.354 157.73 206.164 144.54 201.394C136.713 198.56 131.566 193.217 129.1 185.363C129.068 185.267 129.005 185.186 128.921 185.131C128.837 185.076 128.738 185.052 128.64 185.064C124.273 185.524 120.103 186.367 116.13 187.594C100.43 192.444 88.83 196.494 76.04 203.524C75.7567 203.677 75.5206 203.906 75.3584 204.185C75.1962 204.463 75.114 204.781 75.1201 205.104C75.2468 214.204 75.2962 224.254 75.2695 235.254C75.2596 241.554 77.5401 248.514 79.3301 254.234C79.3608 254.33 79.412 254.418 79.4805 254.492C79.549 254.566 79.6332 254.624 79.7266 254.662C79.82 254.7 79.9207 254.718 80.0215 254.713C80.1221 254.708 80.2205 254.681 80.3096 254.634C95.2996 246.794 112.59 252.584 118.09 268.594C120.743 276.32 119.49 283.921 114.33 291.394C104.59 305.494 81.96 304.963 72.71 290.613C66.71 281.313 66.7162 271.91 72.7295 262.403C72.8588 262.198 72.906 261.951 72.8613 261.715C72.8166 261.479 72.684 261.271 72.4902 261.134L46.4502 242.594C46.2951 242.484 46.1036 242.435 45.916 242.459C45.7286 242.483 45.5581 242.578 45.4395 242.724C33.2594 257.733 9.85998 254.173 2.20996 236.644C-3.39004 223.814 1.96004 209.573 14.79 203.903C22.8833 200.324 31.0162 200.677 39.1895 204.964C41.6393 206.244 44.6295 209.203 46.2695 210.653C46.3893 210.761 46.5403 210.827 46.7002 210.843C46.8601 210.859 47.0214 210.824 47.1602 210.743L65.6699 200.064C66.1345 199.797 66.5201 199.41 66.7871 198.945C67.054 198.479 67.1926 197.951 67.1895 197.413L67.1299 133.314C63.7032 132.774 60.0232 132.547 56.0898 132.634C53.1232 132.701 51.26 132.43 50.5 131.823C48.08 129.903 47.6896 128.453 47.6396 124.953C47.493 113.814 47.4569 102.72 47.5303 91.674C47.5503 88.0674 49.5298 86.2166 53.4697 86.1232C57.6363 86.0299 61.8464 85.9805 66.0996 85.9738C66.3357 85.9738 66.5626 85.8789 66.7295 85.7101C66.8963 85.5414 66.9902 85.3121 66.9902 85.0734V50.7531C66.9897 50.605 66.9361 50.4625 66.8408 50.3508C66.7454 50.2388 66.614 50.1652 66.4697 50.1437C53.1399 48.2237 43.73 37.5338 44.0898 23.884C44.2032 19.5373 45.4367 15.5867 47.79 12.0334ZM66.4297 209.041C66.3639 209.039 66.2987 209.053 66.2402 209.083C60.6737 211.87 55.6931 214.857 51.2998 218.043C51.0446 218.23 50.8495 218.489 50.7393 218.785C50.6291 219.082 50.6085 219.406 50.6797 219.714C51.8462 224.807 51.6364 229.76 50.0498 234.573C49.9916 234.746 49.9911 234.934 50.0488 235.108C50.1066 235.281 50.2198 235.43 50.3701 235.533C56.3367 239.6 62.2433 243.99 68.0898 248.703C68.2831 248.857 68.4829 248.947 68.6895 248.974C68.7631 248.985 68.8388 248.976 68.9082 248.949C68.9776 248.922 69.039 248.877 69.0869 248.82C69.1348 248.762 69.1671 248.692 69.1816 248.617C69.1961 248.543 69.1924 248.466 69.1699 248.394C67.5899 243.414 66.8096 239.174 66.8496 233.264C66.8896 228.464 66.8762 220.52 66.8096 209.434C66.8077 209.366 66.7894 209.3 66.7559 209.241C66.7222 209.183 66.6741 209.134 66.6172 209.099C66.5603 209.064 66.4957 209.044 66.4297 209.041ZM96.5498 111.104C96.4014 111.104 96.2593 111.162 96.1543 111.265C96.0493 111.368 95.9903 111.508 95.9902 111.653C95.9836 112.693 95.9661 117.567 95.9395 126.274C95.9294 130.973 93.6699 132.704 88.7803 132.674C84.1803 132.647 79.6062 132.744 75.0596 132.964L75.04 194.293C75.0403 194.366 75.0586 194.439 75.0938 194.503C75.1289 194.567 75.1796 194.623 75.2412 194.662C75.3027 194.702 75.3733 194.725 75.4463 194.731C75.5194 194.736 75.5933 194.724 75.6602 194.694C92.49 186.654 110.06 179.854 128.439 176.774C128.542 176.756 128.636 176.708 128.708 176.636C128.78 176.564 128.826 176.472 128.84 176.373C130.92 164.063 140.43 155.934 152.95 155.684C165.17 155.444 174.68 164.053 176.28 176.083C176.305 176.283 176.403 176.467 176.556 176.6C176.709 176.732 176.906 176.806 177.109 176.804C185.016 176.644 189.583 176.577 190.81 176.604C198.85 176.754 201.73 172.093 201.31 164.583L201.38 129.163C201.379 128.998 201.319 128.839 201.211 128.714C201.103 128.589 200.953 128.508 200.79 128.484C190.444 126.864 183.37 121.024 179.57 110.964L96.5498 111.104Z" fill="url(#paint0_linear_1_138)"/>
<path d="M577.451 202.76L576.013 202.694C574.463 202.624 573.149 203.824 573.078 205.374L573.029 206.473C572.958 208.023 574.158 209.337 575.708 209.407L577.147 209.473C578.697 209.543 580.011 208.343 580.081 206.793L580.131 205.694C580.202 204.144 579.002 202.83 577.451 202.76Z" fill="white"/>
<path d="M374.52 247.924C374.549 247.905 374.582 247.895 374.617 247.893C374.651 247.891 374.685 247.898 374.715 247.914C374.744 247.929 374.769 247.952 374.786 247.98C374.803 248.009 374.811 248.041 374.81 248.074V253.074C374.81 253.149 374.79 253.224 374.751 253.289C374.712 253.354 374.656 253.407 374.59 253.444C358.4 262.294 338.76 257.524 332.71 239.194C330.87 233.6 330.833 227.867 332.6 221.994C336.186 210.107 344.31 203.67 356.97 202.684C362.536 202.25 368.01 203.13 373.39 205.324C373.771 205.477 374.097 205.741 374.327 206.081C374.557 206.422 374.68 206.823 374.68 207.234V210.334C374.679 210.497 374.637 210.657 374.557 210.799C374.476 210.941 374.361 211.06 374.221 211.145C374.081 211.229 373.922 211.276 373.759 211.281C373.596 211.286 373.434 211.249 373.29 211.174C359.09 203.784 339.34 208.084 337.72 226.864C336.92 236.274 339.86 246.664 349.38 250.624C357.59 254.034 367.01 252.784 374.52 247.924Z" fill="white"/>
<path d="M495.92 224.474C495.917 224.548 495.939 224.621 495.983 224.681C496.027 224.742 496.09 224.785 496.162 224.805C496.234 224.825 496.311 224.819 496.379 224.79C496.448 224.761 496.504 224.709 496.54 224.644C498.72 221.097 501.903 219.07 506.09 218.564C516.183 217.337 522.483 221.524 524.99 231.124C526.56 237.144 525.62 245.994 521.71 251.024C515.71 258.764 502.2 260.934 496.61 251.334C496.579 251.277 496.531 251.232 496.472 251.207C496.413 251.182 496.347 251.178 496.284 251.195C496.221 251.212 496.165 251.25 496.125 251.302C496.084 251.354 496.061 251.418 496.06 251.484V273.644C496.06 273.713 496.031 273.779 495.981 273.827C495.93 273.876 495.861 273.904 495.79 273.904H491.2C491.112 273.904 491.028 273.869 490.966 273.807C490.905 273.745 490.87 273.661 490.87 273.574V219.814C490.87 219.652 490.935 219.497 491.051 219.382C491.168 219.268 491.325 219.204 491.49 219.204H495.3C495.464 219.204 495.622 219.268 495.738 219.382C495.854 219.497 495.92 219.652 495.92 219.814V224.474ZM495.83 237.114C495.36 244.764 498.2 252.524 507.02 253.054C515.83 253.594 519.59 246.234 520.05 238.584C520.51 230.934 517.67 223.174 508.86 222.634C500.05 222.104 496.29 229.464 495.83 237.114Z" fill="white"/>
<path d="M618.31 223.234C618.47 222.527 618.456 221.517 618.27 220.204C618.256 220.094 618.265 219.983 618.297 219.877C618.329 219.771 618.384 219.673 618.456 219.59C618.529 219.507 618.619 219.44 618.719 219.394C618.82 219.348 618.929 219.324 619.04 219.324H622.7C622.907 219.324 623.105 219.406 623.251 219.552C623.398 219.698 623.48 219.897 623.48 220.104C623.38 233.33 623.36 245.99 623.42 258.084C623.433 261.037 622.336 264.29 620.13 267.844C614.92 276.224 600.02 275.394 592.05 271.674C591.846 271.578 591.674 271.427 591.554 271.238C591.433 271.048 591.37 270.828 591.37 270.604V266.974C591.37 266.882 591.394 266.793 591.44 266.714C591.485 266.635 591.551 266.569 591.63 266.524C591.709 266.478 591.799 266.454 591.89 266.454C591.981 266.454 592.071 266.478 592.15 266.524C599.26 270.554 612.01 271.944 616.49 263.494C618.16 260.344 618.36 254.924 618.52 251.064C618.525 250.99 618.507 250.918 618.467 250.856C618.428 250.794 618.369 250.747 618.301 250.721C618.232 250.695 618.157 250.692 618.087 250.712C618.016 250.733 617.954 250.775 617.91 250.834C612.756 257.414 606.103 258.917 597.95 255.344C588.4 251.154 586.95 239.174 589.46 230.404C593.03 217.874 608.84 213.874 617.64 223.404C617.687 223.457 617.748 223.496 617.817 223.516C617.885 223.537 617.957 223.539 618.026 223.521C618.095 223.504 618.158 223.468 618.208 223.417C618.258 223.366 618.293 223.303 618.31 223.234ZM606.899 222.519C603.556 222.367 600.276 223.822 597.783 226.562C595.289 229.302 593.786 233.104 593.603 237.131C593.512 239.125 593.749 241.114 594.299 242.985C594.848 244.857 595.701 246.573 596.808 248.036C597.914 249.499 599.253 250.681 600.748 251.513C602.243 252.346 603.865 252.813 605.52 252.888C608.864 253.04 612.143 251.586 614.637 248.845C617.13 246.105 618.634 242.303 618.817 238.276C618.907 236.282 618.671 234.293 618.121 232.422C617.571 230.551 616.718 228.835 615.612 227.371C614.505 225.908 613.166 224.727 611.671 223.894C610.176 223.062 608.555 222.594 606.899 222.519Z" fill="white"/>
<path d="M640.09 256.444C640.09 256.518 640.061 256.589 640.011 256.642C639.96 256.694 639.891 256.724 639.82 256.724H635.14C635.055 256.724 634.974 256.69 634.914 256.63C634.854 256.57 634.82 256.488 634.82 256.404V219.754C634.82 219.621 634.872 219.494 634.966 219.4C635.06 219.306 635.187 219.254 635.32 219.254H639.49C639.609 219.254 639.724 219.301 639.808 219.385C639.892 219.47 639.94 219.584 639.94 219.704V224.604C639.942 224.689 639.972 224.771 640.026 224.837C640.08 224.904 640.153 224.951 640.236 224.971C640.319 224.992 640.406 224.985 640.485 224.951C640.563 224.917 640.628 224.858 640.67 224.784C644.33 217.754 655.81 216.044 661.73 220.884C665.87 224.254 666.89 229.274 666.82 234.624C666.813 235.41 666.693 242.644 666.46 256.324C666.457 256.436 666.411 256.543 666.33 256.621C666.25 256.7 666.142 256.744 666.03 256.744H661.72C661.616 256.744 661.517 256.702 661.444 256.629C661.371 256.556 661.33 256.457 661.33 256.354C661.19 247.36 661.133 240.594 661.16 236.054C661.193 231.334 660.64 228.134 659.5 226.454C656.83 222.524 651.89 221.874 647.63 223.554C641.19 226.084 639.83 231.844 640.06 238.684C640.166 241.65 640.176 247.57 640.09 256.444Z" fill="white"/>
<path d="M406.92 251.054C406.921 251.007 406.906 250.96 406.879 250.922C406.852 250.884 406.813 250.855 406.768 250.841C406.723 250.826 406.675 250.826 406.63 250.841C406.586 250.856 406.547 250.885 406.52 250.924C402.66 256.517 397.103 258.494 389.85 256.854C385.46 255.864 382.24 252.394 381.82 247.804C380.57 234.434 397.5 233.924 406.2 233.284C406.4 233.268 406.585 233.175 406.716 233.025C406.847 232.876 406.913 232.681 406.9 232.484C406.8 230.924 406.607 229.59 406.32 228.484C403.98 219.174 391.48 223.014 386.27 226.794C386.26 226.8 386.248 226.805 386.236 226.806C386.224 226.808 386.212 226.807 386.2 226.803C386.188 226.799 386.178 226.793 386.169 226.784C386.161 226.776 386.154 226.765 386.15 226.754L384.93 222.434C384.903 222.335 384.911 222.23 384.951 222.136C384.99 222.042 385.061 221.963 385.15 221.914C392.99 217.714 405.7 215.484 410.52 224.434C411.753 226.727 412.25 231.287 412.01 238.114C411.963 239.42 411.95 245.39 411.97 256.024C411.97 256.196 411.901 256.361 411.779 256.483C411.658 256.605 411.492 256.674 411.32 256.674L407.66 256.664C407.56 256.664 407.461 256.644 407.369 256.605C407.277 256.566 407.193 256.51 407.122 256.438C407.052 256.367 406.996 256.282 406.958 256.188C406.919 256.095 406.9 255.995 406.9 255.894L406.92 251.054ZM406.08 237.514C399.75 238.204 391.65 238.604 388.75 242.334C386.73 244.934 386.476 247.504 387.99 250.044C390.27 253.864 396.48 253.894 399.99 252.074C405.116 249.414 407.357 244.73 406.71 238.024C406.702 237.949 406.68 237.876 406.644 237.809C406.608 237.743 406.56 237.685 406.501 237.637C406.443 237.59 406.375 237.554 406.303 237.533C406.231 237.512 406.155 237.505 406.08 237.514Z" fill="white"/>
<path d="M428.27 224.104C428.269 224.188 428.297 224.271 428.347 224.339C428.398 224.407 428.469 224.456 428.551 224.48C428.632 224.504 428.719 224.5 428.798 224.47C428.877 224.44 428.945 224.385 428.99 224.314C432.12 219.204 437.25 218.094 443 218.424C447.34 218.67 450.526 220.83 452.56 224.904C452.598 224.981 452.656 225.047 452.728 225.095C452.8 225.143 452.884 225.171 452.97 225.176C453.057 225.181 453.143 225.163 453.22 225.124C453.297 225.085 453.363 225.026 453.41 224.954C456.063 220.947 459.923 218.76 464.99 218.394C477.58 217.474 479.96 226.274 479.87 237.264C479.796 245.917 479.756 252.277 479.75 256.344C479.75 256.431 479.715 256.515 479.653 256.577C479.591 256.639 479.507 256.674 479.42 256.674H474.87C474.833 256.674 474.797 256.666 474.763 256.652C474.729 256.637 474.698 256.616 474.672 256.589C474.646 256.562 474.625 256.53 474.611 256.495C474.597 256.459 474.59 256.422 474.59 256.384C474.583 244.304 474.59 236.717 474.61 233.624C474.623 231.564 474.223 229.557 473.41 227.604C470.43 220.524 460.55 221.674 456.75 227.144C454.93 229.764 454.006 232.504 453.98 235.364C453.873 244.917 453.87 251.914 453.97 256.354C453.97 256.402 453.96 256.45 453.942 256.495C453.924 256.54 453.898 256.581 453.864 256.615C453.831 256.65 453.791 256.677 453.748 256.695C453.704 256.714 453.657 256.724 453.61 256.724H449.43C449.326 256.724 449.227 256.683 449.154 256.609C449.081 256.536 449.04 256.437 449.04 256.334C449.06 240.934 449.04 232.614 448.98 231.374C448.63 223.234 439.57 220.244 433.58 224.574C429.32 227.654 428.22 232.094 428.4 237.564C428.573 242.897 428.586 249.107 428.44 256.194C428.437 256.34 428.377 256.48 428.272 256.583C428.168 256.686 428.027 256.744 427.88 256.744H423.67C423.519 256.744 423.374 256.685 423.267 256.58C423.16 256.475 423.1 256.332 423.1 256.184V219.724C423.1 219.559 423.165 219.402 423.281 219.285C423.398 219.169 423.555 219.104 423.72 219.104H427.56C427.748 219.104 427.929 219.178 428.062 219.312C428.195 219.445 428.27 219.625 428.27 219.814V224.104Z" fill="white"/>
<path d="M557.58 251.154C557.581 251.107 557.566 251.06 557.539 251.022C557.512 250.984 557.473 250.955 557.428 250.941C557.383 250.926 557.335 250.926 557.29 250.941C557.246 250.956 557.207 250.985 557.18 251.024C553.32 256.65 547.746 258.65 540.46 257.024C536.04 256.044 532.8 252.574 532.36 247.964C531.07 234.534 548.07 233.974 556.81 233.304C557.01 233.288 557.195 233.195 557.326 233.045C557.457 232.896 557.523 232.701 557.51 232.504C557.403 230.937 557.206 229.597 556.92 228.484C554.54 219.144 542 223.034 536.77 226.844C536.76 226.85 536.748 226.855 536.736 226.856C536.724 226.858 536.712 226.857 536.7 226.853C536.688 226.849 536.678 226.843 536.669 226.834C536.66 226.826 536.654 226.815 536.65 226.804L535.42 222.474C535.391 222.375 535.398 222.269 535.437 222.173C535.477 222.076 535.549 221.996 535.64 221.944C543.5 217.704 556.26 215.434 561.12 224.404C562.366 226.704 562.88 231.284 562.66 238.144C562.62 239.457 562.623 245.454 562.67 256.134C562.67 256.306 562.601 256.471 562.479 256.593C562.358 256.715 562.192 256.784 562.02 256.784H558.34C558.138 256.784 557.945 256.702 557.802 256.558C557.66 256.414 557.58 256.218 557.58 256.014V251.154ZM556.56 237.694C550.23 238.294 542.14 238.584 539.19 242.274C537.136 244.84 536.85 247.404 538.33 249.964C540.55 253.804 546.76 253.924 550.28 252.154C555.44 249.56 557.74 244.914 557.18 238.214C557.174 238.139 557.152 238.066 557.118 237.999C557.083 237.932 557.036 237.873 556.978 237.824C556.92 237.776 556.854 237.74 556.782 237.717C556.71 237.695 556.635 237.687 556.56 237.694Z" fill="white"/>
<path d="M675.69 254.714V249.484C675.689 249.439 675.701 249.395 675.724 249.357C675.747 249.319 675.781 249.289 675.821 249.27C675.862 249.251 675.906 249.244 675.951 249.25C675.995 249.256 676.036 249.275 676.07 249.304C677.923 250.804 680.283 251.914 683.15 252.634C687.19 253.644 692.03 253.024 694.46 249.424C696.23 246.814 693.71 243.084 691.45 242.084C686.303 239.81 682.996 238.304 681.53 237.564C672.34 232.934 673.55 221.114 683.46 218.924C688.567 217.804 693.493 218.36 698.24 220.594C698.275 220.608 698.306 220.633 698.327 220.667C698.348 220.701 698.36 220.742 698.36 220.784V225.594C698.359 225.631 698.349 225.668 698.33 225.7C698.311 225.732 698.285 225.759 698.253 225.777C698.222 225.796 698.186 225.805 698.15 225.804C698.115 225.804 698.08 225.793 698.05 225.774C694.636 223.64 691.086 222.63 687.4 222.744C682.79 222.884 678.93 226.454 681.82 231.164C682.473 232.23 683.803 233.174 685.81 233.994C692.66 236.814 700.73 238.944 700.29 247.194C699.62 259.634 683.39 258.944 675.81 254.914C675.773 254.892 675.742 254.863 675.721 254.828C675.7 254.792 675.689 254.753 675.69 254.714Z" fill="white"/>
<path d="M578.747 219.17L574.347 219.177C574.06 219.178 573.827 219.411 573.828 219.698L573.892 256.398C573.892 256.685 574.126 256.918 574.413 256.917L578.813 256.91C579.1 256.909 579.332 256.676 579.332 256.389L579.268 219.689C579.267 219.402 579.034 219.169 578.747 219.17Z" fill="white"/>
<defs>
<linearGradient id="paint0_linear_1_138" x1="47.4298" y1="-32.8764" x2="188.43" y2="331.124" gradientUnits="userSpaceOnUse">
<stop stop-color="#3471EA"/>
<stop offset="0.995192" stop-color="#5A48CE"/>
</linearGradient>
</defs>
</svg>
